HIERARCHY
ROOT Hips
{
    OFFSET 0.0 0.0 0.0
    CHANNELS 6 Xposition Yposition Zposition Zrotation Xrotation Yrotation
    JOINT LeftHipJoint
    {
        OFFSET 0.1 0.0 0.0
        CHANNELS 3 Zrotation Xrotation Yrotation
        JOINT LeftUpLeg
        {
            OFFSET 123.65261490791379 0.0 0.0
            CHANNELS 3 Zrotation Xrotation Yrotation
            JOINT LeftLeg
            {
                OFFSET 0.0 0.0 -418.49960932519537
                CHANNELS 3 Zrotation Xrotation Yrotation
                JOINT LeftFoot
                {
                    OFFSET 0.0 0.0 -397.7219388507013
                    CHANNELS 3 Zrotation Xrotation Yrotation
                    End Site
                    {
                        OFFSET 0.0 -0.1 0.0
                    }
                }
            }
        }
    }
    JOINT LowerBack
    {
        OFFSET 0.0 0.0 0.1
        CHANNELS 3 Zrotation Xrotation Yrotation
        JOINT Spine
        {
            OFFSET 0.0 0.0 217.35512497193145
            CHANNELS 3 Zrotation Xrotation Yrotation
            JOINT Spine1
            {
                OFFSET 0.0 0.0 251.14429307938732
                CHANNELS 3 Zrotation Xrotation Yrotation
                JOINT LeftShoulder
                {
                    OFFSET 0.1 0.0 0.0
                    CHANNELS 3 Zrotation Xrotation Yrotation
                    JOINT LeftArm
                    {
                        OFFSET 142.84734576400652 0.0 0.0
                        CHANNELS 3 Zrotation Xrotation Yrotation
                        JOINT LeftForeArm
                        {
                            OFFSET 266.6717320945535 0.0 0.0
                            CHANNELS 3 Zrotation Xrotation Yrotation
                            JOINT LeftHand
                            {
                                OFFSET 232.07562795080113 0.0 0.0
                                CHANNELS 3 Zrotation Xrotation Yrotation
                                End Site
                                {
                                    OFFSET 0.1 0.0 0.0
                                }
                            }
                        }
                    }
                }
                JOINT Neck
                {
                    OFFSET 0.0 0.0 0.1
                    CHANNELS 3 Zrotation Xrotation Yrotation
                    JOINT Neck1
                    {
                        OFFSET 0.0 0.0 105.55021538114711
                        CHANNELS 3 Zrotation Xrotation Yrotation
                        End Site
                        {
                            OFFSET 0.0 0.0 105.91471704169068
                        }
                    }
                }
                JOINT RightShoulder
                {
                    OFFSET -0.1 0.0 0.0
                    CHANNELS 3 Zrotation Xrotation Yrotation
                    JOINT RightArm
                    {
                        OFFSET -142.84734576400652 0.0 0.0
                        CHANNELS 3 Zrotation Xrotation Yrotation
                        JOINT RightForeArm
                        {
                            OFFSET -266.6717320945535 0.0 0.0
                            CHANNELS 3 Zrotation Xrotation Yrotation
                            JOINT RightHand
                            {
                                OFFSET -232.07562795080113 0.0 0.0
                                CHANNELS 3 Zrotation Xrotation Yrotation
                                End Site
                                {
                                    OFFSET -0.1 0.0 0.0
                                }
                            }
                        }
                    }
                }
            }
        }
    }
    JOINT RightHipJoint
    {
        OFFSET -0.1 0.0 0.0
        CHANNELS 3 Zrotation Xrotation Yrotation
        JOINT RightUpLeg
        {
            OFFSET -123.65261490791379 0.0 0.0
            CHANNELS 3 Zrotation Xrotation Yrotation
            JOINT RightLeg
            {
                OFFSET 0.0 0.0 -418.49960932519537
                CHANNELS 3 Zrotation Xrotation Yrotation
                JOINT RightFoot
                {
                    OFFSET 0.0 0.0 -397.7219388507013
                    CHANNELS 3 Zrotation Xrotation Yrotation
                    End Site
                    {
                        OFFSET 0.0 -0.1 0.0
                    }
                }
            }
        }
    }
}
MOTION
Frames: 7
Frame Time: 0.03333333333333333
0.0 0.0 822.3830070177111 24.294359599035136 9.885345722306585 2.710279190382151 0.0 0.0 0.0 -1.205884742150777 -22.651433133865076 0.8039160135613999 1.691157258909156 23.228793139192554 -0.6641734996993325 0.0 0.0 7.951386703658792e-16 0.0 0.0 0.0 0.11557824517232598 2.2879089981457987 1.682198981826596 -0.4564113159392061 -3.1852799256229642e-15 1.1800306198158996e-15 0.0 0.0 0.0 -59.692172306998984 49.9879125972704 89.74193623300131 -83.88915565278016 -6.85725968695448e-15 -1.886168071664455e-15 0.0 0.0 -1.3914926731402884e-15 0.0 0.0 0.0 -1.0062591443835394 -7.484067567893149 -5.181268966133386 0.0 0.0 0.0 58.18812542453793 44.184179820663566 -93.4926323183712 81.00925336979319 1.71325469520531e-15 6.902492213559855e-15 0.0 0.0 0.0 0.0 0.0 0.0 -1.1946570001459575 -22.41337625283333 -1.0790858962423455 1.014607086911801 26.317277832540743 -0.8568130880990226 0.0 0.0 0.0
0.0 0.0 822.3830070177111 24.190690070387696 9.885845643965402 2.7518757014459676 0.0 0.0 0.0 -1.1958399162473532 -22.76796812246598 0.7019633947571332 1.6422856759621902 23.392243018551852 -0.574412231336066 -3.1805546814635168e-15 -1.1034765745125397e-32 3.975693351829396e-16 0.0 0.0 0.0 0.10837089553322278 2.175794215998917 1.6259951518055669 -0.43672731708932744 -1.0090681055198445e-15 3.9718764819590414e-15 0.0 0.0 7.951386703658792e-16 -59.56218550884095 50.01225385346452 89.72866492643062 -83.87154520913732 4.49155252849042e-15 -2.404413595251432e-16 0.0 0.0 1.987846675914698e-15 0.0 0.0 7.951386703658792e-16 -0.8799920369914194 -7.506544811367415 -5.155702680021807 0.0 0.0 7.951386703658792e-16 58.059669325026675 44.30491745509692 -93.38246576106167 81.25579230908338 7.598199294429526e-15 1.862537223126857e-14 0.0 0.0 0.0 0.0 0.0 0.0 -1.1701134765718728 -22.279421815588314 -1.1395655605880914 0.9515976292665163 26.081349168338395 -0.7701637248334511 0.0 0.0 -3.975693351829396e-16
0.0 0.0 822.3830070177111 24.013420519203894 9.8911490475762 2.8113910210587636 0.0 0.0 3.975693351829396e-16 -1.2039239984662353 -22.818309788918118 0.5557999739922034 1.5888945023808647 23.444142124020452 -0.46693606677463023 -3.1805546814635168e-15 -1.5902773407317584e-15 -1.1927080055488188e-15 0.0 0.0 3.975693351829396e-16 0.1031982523277777 2.063305117726057 1.585356772736655 -0.43507007507732276 -4.7677787387429176e-15 -8.132463264633139e-16 0.0 0.0 -3.975693351829396e-16 -59.14629863139446 50.02195891867538 89.5602581560589 -83.89435932340692 2.1260265903536158e-15 -2.3655737187601813e-15 5.517382872562698e-32 -6.361109362927033e-15 9.939233379573488e-16 0.0 0.0 -3.975693351829396e-16 -0.6027414840082009 -7.4287456904263305 -5.200096241021216 0.0 0.0 -3.975693351829396e-16 57.9206198698947 44.433685300205774 -93.29071472936788 81.54035617242947 -1.0716691598261952e-14 -7.557995672001483e-15 0.0 0.0 0.0 0.0 0.0 3.975693351829396e-16 -1.1753134247708785 -22.284630375750627 -1.2246063599769483 0.9110590369511838 25.950614354899777 -0.717994066101699 0.0 0.0 0.0
0.0 0.0 822.3830070177111 23.852018293896226 9.933293920792105 2.8663945707988736 0.0 0.0 -3.975693351829396e-16 -1.2388450669813638 -22.87054245655116 0.44020170194805075 1.566291556294574 23.33337970229948 -0.40165557993171136 0.0 0.0 -7.951386703658792e-16 0.0 0.0 -3.975693351829396e-16 0.1051690386226563 2.0487919629302427 1.5311272807536414 -0.45429428604952476 -1.9862549086577135e-15 -4.0544693987753607e-16 0.0 0.0 -3.975693351829396e-16 -58.67563145166289 49.92437676341079 89.21124744204597 -83.90194218399968 -1.2305664951684385e-14 -1.9614147914992376e-14 1.1034765745125397e-32 -6.361109362927033e-15 1.9878466759146977e-16 0.0 0.0 -3.975693351829396e-16 -0.4444141043958735 -7.572185302113654 -5.241034735895655 0.0 0.0 -3.975693351829396e-16 57.66207111599943 44.489703878933774 -93.04988928967113 81.80051805227632 -4.808047750848356e-15 4.164899656976148e-15 0.0 0.0 0.0 0.0 0.0 -3.975693351829396e-16 -1.203941651693489 -22.24725120496675 -1.3187294037087154 0.8976204075710493 25.78159796297393 -0.6818338690323087 -3.1805546814635168e-15 1.1034765745125397e-32 -3.975693351829396e-16
0.0 0.0 822.3830070177111 23.774218231389174 9.924778983171143 2.9483818127406884 0.0 0.0 0.0 -1.2535487293021492 -22.975687949207085 0.327412186984245 1.5502923508639792 23.638873318657502 -0.3790047408485474 0.0 0.0 3.975693351829396e-16 0.0 0.0 0.0 0.10403308328617172 2.013057993045959 1.4023167517253154 -0.436691504473263 1.7829887200593535e-15 1.5970836278077374e-15 0.0 0.0 0.0 -58.46499341160079 49.83362316214224 89.05723765752138 -83.84677856340606 -4.250088344998103e-15 4.732912569108925e-15 -3.1805546814635168e-15 6.361109362927035e-15 -8.746525374024672e-15 0.0 0.0 0.0 -0.21533212101016877 -7.769953303692177 -5.2638743623777335 0.0 0.0 0.0 57.48760816886474 44.64562658732846 -92.90444734008767 81.9447262572342 4.170947064278225e-15 4.8028026103627066e-15 -3.1805546814635168e-15 0.0 0.0 0.0 0.0 0.0 -1.205423277839904 -22.135153588999277 -1.4652252560279029 0.8357495557563962 25.77649896823426 -0.5918990414793742 0.0 0.0 0.0
0.0 0.0 822.3830070177111 23.75605119716073 9.898419360440817 2.9419950735604 0.0 0.0 0.0 -1.2444891111415368 -22.89974343688474 0.30987353011901436 1.5323482771062615 23.576689477285147 -0.3434971436484199 0.0 0.0 -7.951386703658792e-16 0.0 0.0 0.0 0.10266839396423794 1.993572191220637 1.4055701941555059 -0.48711216355251935 1.58350295389258e-15 1.5970229916639334e-15 5.517382872562698e-33 -1.5902773407317584e-15 3.975693351829396e-16 -58.32316395586548 49.749176477748065 89.02947720543155 -83.79386661572732 -4.734874516649863e-15 -4.247902498727779e-15 0.0 0.0 1.7890620083232284e-15 5.517382872562698e-33 -1.5902773407317584e-15 3.975693351829396e-16 -0.12176930742901104 -7.92006271366749 -5.369901900631362 5.517382872562698e-33 -1.5902773407317584e-15 3.975693351829396e-16 57.49278810851285 44.74373913413498 -92.96438136778576 82.11078150369865 2.3983767139328194e-15 -2.08895122486005e-15 3.1805546814635168e-15 0.0 0.0 0.0 0.0 0.0 -1.1951433540139642 -22.031633996942816 -1.5145181111521644 0.8095590394788345 25.889939627604154 -0.46635612198744164 0.0 0.0 0.0
0.0 0.0 822.3830070177111 23.7206814969 9.799994240721137 2.964223273876904 0.0 0.0 3.975693351829396e-16 -1.248351921521355 -22.75495018396821 0.25960822273151707 1.5312441511272064 23.687730602460274 -0.3295445121143229 0.0 0.0 0.0 0.0 0.0 3.975693351829396e-16 0.1013584839776287 1.9481678032960044 1.404148894770102 -0.5069370982015453 1.989586009959668e-15 -3.8877151669803215e-16 0.0 0.0 7.951386703658792e-16 -58.10123194245683 49.74877502997642 88.91511236496866 -83.89720854381005 2.3655208562092004e-15 2.1260854076491805e-15 0.0 0.0 -1.7890620083232284e-15 0.0 0.0 7.951386703658792e-16 -0.148029555978329 -7.922267166798368 -5.480939427420553 0.0 0.0 7.951386703658792e-16 57.59568859941178 44.84701093266332 -93.04755225509764 82.20608558325067 -4.7932770705547856e-15 4.181890392156601e-15 3.1805546814635168e-15 0.0 0.0 0.0 0.0 3.975693351829396e-16 -1.2011407081360006 -21.926978020152575 -1.5781694575248413 0.7951229265741113 25.940922799078617 -0.3784899612529325 3.1805546814635164e-15 -9.939233379573486e-17 7.951386703658791e-16
